<svg width="100" height="25" viewBox="0 0 100 25" fill="none" xmlns="http://www.w3.org/2000/svg">
<path d="M8.5399 0L0 4.93604V24.6802L8.5399 19.7441V0Z" fill="#282C33"/>
<path d="M17.0797 24.3727V14.8081L8.5399 19.7441V24.3727H17.0797Z" fill="#282C33"/>
<path d="M25 2H30.0531V20.3375H39.1281V24.3031H25V2Z" fill="#282C33"/>
<path d="M40.7905 18.5719V8.0625H45.2812V17.9531C45.2812 20.1656 46.2187 21.225 48.0937 21.225C48.5632 21.2493 49.0325 21.1715 49.4691 20.997C49.9057 20.8224 50.2993 20.5553 50.6228 20.214C50.9462 19.8728 51.1919 19.4654 51.3428 19.0201C51.4936 18.5747 51.5462 18.102 51.4968 17.6344V8.0625H55.9874V24.375H51.5249V21.8156C51.0381 22.75 50.2891 23.5219 49.3698 24.0365C48.4505 24.5511 47.4009 24.786 46.3499 24.7125C43.1624 24.7125 40.7905 22.8469 40.7905 18.5719Z" fill="#282C33"/>
<path d="M58.1343 16.425V16.1719C58.0865 15.0511 58.2721 13.9326 58.6792 12.8873C59.0863 11.842 59.7062 10.8927 60.4994 10.0995C61.2926 9.30626 62.242 8.68645 63.2873 8.27932C64.3326 7.8722 65.451 7.68664 66.5718 7.7344C70.3218 7.7344 73.8374 9.3844 74.2406 14.0625H69.9374C69.9142 13.658 69.8093 13.2623 69.629 12.8995C69.4487 12.5366 69.1967 12.214 68.8883 11.9512C68.5799 11.6884 68.2215 11.4907 67.8346 11.3702C67.4478 11.2497 67.0405 11.2088 66.6374 11.25C64.2937 11.25 62.7374 13.0031 62.7374 16.1156V16.3687C62.7374 19.6406 64.1999 21.3281 66.7312 21.3281C67.1677 21.3534 67.6049 21.2916 68.0173 21.1465C68.4298 21.0013 68.8093 20.7757 69.1338 20.4826C69.4583 20.1895 69.7213 19.8348 69.9075 19.4392C70.0938 19.0436 70.1995 18.615 70.2187 18.1781H74.3062C74.0624 22.0406 71.2499 24.7406 66.5155 24.7406C61.7812 24.7406 58.1343 21.75 58.1343 16.425Z" fill="#282C33"/>
<path d="M76.2656 3.38443C76.2432 2.86953 76.3755 2.35971 76.6456 1.92077C76.9158 1.48184 77.3112 1.13394 77.781 0.921973C78.2508 0.710011 78.7733 0.643718 79.2812 0.731649C79.789 0.819581 80.2588 1.05771 80.63 1.41528C81.0012 1.77286 81.2566 2.23347 81.3634 2.73767C81.4703 3.24187 81.4235 3.76651 81.2292 4.24388C81.0349 4.72124 80.702 5.12942 80.2735 5.41572C79.8449 5.70202 79.3404 5.85331 78.825 5.85005C78.4937 5.86135 78.1636 5.806 77.8541 5.68728C77.5447 5.56856 77.2622 5.38888 77.0235 5.15892C76.7848 4.92896 76.5947 4.65339 76.4645 4.34857C76.3343 4.04375 76.2667 3.71588 76.2656 3.38443ZM76.6125 8.07193H81.1031V24.375H76.6125V8.07193Z" fill="#282C33"/>
<path d="M83.0625 16.4531V16.2C83.0625 10.8375 86.1469 7.6875 90.2344 7.6875C91.2715 7.61412 92.308 7.84016 93.2204 8.33875C94.133 8.83734 94.883 9.5875 95.381 10.5V0.9375H99.938V24.375H95.334V21.6563C94.817 22.5907 94.057 23.368 93.1349 23.906C92.2124 24.444 91.1616 24.7226 90.0938 24.7125C86.1375 24.7125 83.0625 21.8812 83.0625 16.4531ZM95.503 16.2937V16.05C95.503 12.8063 94.069 11.1469 91.6031 11.1469C89.1375 11.1469 87.675 12.8625 87.675 16.1063V16.3594C87.675 19.6031 89.2406 21.1875 91.4813 21.1875C93.7219 21.1875 95.456 19.6031 95.456 16.2937H95.503Z" fill="#282C33"/>
</svg>
